Coordinates
version=1
nRows=34
nColumns=34
inDegrees=no

Units are S.I. units (second, meters, Newtons, ...)
If the header above contains a line with 'inDegrees', this indicates whether rotational values are in degrees (yes) or radians (no).

endheader
time	pelvis_tilt	pelvis_list	pelvis_rotation	pelvis_tx	pelvis_ty	pelvis_tz	hip_flexion_r	hip_adduction_r	hip_rotation_r	knee_angle_r	ankle_angle_r	subtalar_angle_r	mtp_angle_r	hip_flexion_l	hip_adduction_l	hip_rotation_l	knee_angle_l	ankle_angle_l	subtalar_angle_l	mtp_angle_l	lumbar_extension	lumbar_bending	lumbar_rotation	arm_flex_r	arm_add_r	arm_rot_r	elbow_flex_r	pro_sup_r	arm_flex_l	arm_add_l	arm_rot_l	elbow_flex_l	pro_sup_l
0	0.262644	-0.0709495	-0.00419935	-0.20404	0.895961	-0.270653	0.191072	0.0185183	-0.0944712	0.0221128	0.179986	0.145581	-0.0547367	-0.564887	-0.113128	-0.469369	0.246597	0.482533	0.389	-0.05481	-0.608467	0.0957252	-0.135343	0.132013	-0.153284	0.0143188	0.436497	1.07379	0.301024	-0.241661	0.445396	0.461412	1.17948
0.01	0.256296	-0.0708885	0.00824018	-0.18993	0.894712	-0.269686	0.186712	0.0179443	-0.0925467	0.0163761	0.153063	0.138122	-0.0547304	-0.562873	-0.132896	-0.481148	0.27035	0.482414	0.41227	-0.0548037	-0.598066	0.106247	-0.143509	0.124096	-0.150514	0.00394464	0.432417	1.07142	0.294401	-0.237142	0.44089	0.457732	1.18058
0.02	0.251642	-0.0729125	0.0196889	-0.175665	0.893622	-0.268552	0.182702	0.020452	-0.0908669	0.0158829	0.123443	0.124935	-0.054724	-0.561667	-0.153874	-0.490226	0.295688	0.476977	0.428111	-0.0547973	-0.589176	0.118126	-0.149436	0.116617	-0.14855	-0.00486953	0.427632	1.06858	0.287218	-0.23232	0.435873	0.454324	1.18124
0.03	0.248707	-0.0770079	0.0301001	-0.161249	0.892694	-0.267248	0.179036	0.026032	-0.0893723	0.0206523	0.0912892	0.106087	-0.0547177	-0.561279	-0.176006	-0.496592	0.322605	0.466145	0.436448	-0.0547909	-0.581815	0.131333	-0.153088	0.109595	-0.147394	-0.0121015	0.422126	1.0653	0.279483	-0.227192	0.43034	0.451172	1.18143
0.04	0.247527	-0.0831341	0.0393523	-0.146688	0.891938	-0.265768	0.17567	0.034638	-0.0878993	0.030705	0.0571354	0.0818141	-0.0547113	-0.561736	-0.199113	-0.500197	0.351071	0.449683	0.437037	-0.0547846	-0.576032	0.145766	-0.154381	0.103081	-0.147047	-0.0176935	0.41585	1.0616	0.271213	-0.22175	0.424271	0.448219	1.18116
0.05	0.248136	-0.0911952	0.0472487	-0.131996	0.891377	-0.264101	0.172497	0.0461428	-0.0861954	0.0459969	0.0220217	0.0526491	-0.0547049	-0.563061	-0.222848	-0.500928	0.381032	0.427171	0.429399	-0.0547782	-0.571893	0.161223	-0.153198	0.097161	-0.147497	-0.0215579	0.408719	1.05758	0.262441	-0.215983	0.41763	0.445359	1.18039
0.06	0.250543	-0.101001	0.0535554	-0.117195	0.891045	-0.262241	0.169331	0.0602805	-0.0839935	0.0663141	-0.0124871	0.0195608	-0.0546986	-0.565223	-0.246662	-0.498605	0.412355	0.398049	0.412829	-0.0547719	-0.569472	0.177384	-0.149436	0.09197	-0.148713	-0.0235973	0.400626	1.05337	0.253241	-0.209882	0.410372	0.442432	1.17911
0.07	0.25468	-0.112226	0.0580582	-0.102328	0.890983	-0.260189	0.16593	0.0765826	-0.0811237	0.0911972	-0.0444303	-0.015939	-0.0546922	-0.568064	-0.269804	-0.492992	0.444814	0.36174	0.386472	-0.0547655	-0.568829	0.193801	-0.143071	0.0876952	-0.150623	-0.0237392	0.391478	1.04913	0.243752	-0.203457	0.402476	0.43925	1.17734
0.08	0.260346	-0.124382	0.0606291	-0.0874598	0.891232	-0.257962	0.162048	0.0943398	-0.0776208	0.11988	-0.0716976	-0.0517771	-0.0546858	-0.571211	-0.29137	-0.483842	0.478112	0.317843	0.349496	-0.0547591	-0.569953	0.209911	-0.13423	0.0845654	-0.153114	-0.021977	0.381226	1.04509	0.234196	-0.196745	0.393971	0.435618	1.17517
0.09	0.267171	-0.136829	0.0612862	-0.0726765	0.89182	-0.255595	0.157484	0.112613	-0.0737858	0.151257	-0.09234	-0.085442	-0.0546795	-0.573991	-0.310408	-0.470955	0.511948	0.266357	0.301339	-0.0547528	-0.572711	0.225072	-0.123242	0.0828276	-0.156027	-0.0184053	0.369903	1.04146	0.224869	-0.189825	0.384974	0.431371	1.17276
0.1	0.274601	-0.148835	0.0602386	-0.0580804	0.892754	-0.253141	0.152128	0.130322	-0.0701696	0.183903	-0.104887	-0.114284	-0.0546731	-0.575382	-0.326095	-0.454243	0.546149	0.207905	0.242028	-0.0547464	-0.57679	0.238652	-0.110663	0.0827094	-0.159173	-0.0132391	0.357652	1.03846	0.216114	-0.182819	0.375704	0.426402	1.17038
0.11	0.281951	-0.159704	0.0579096	-0.0437734	0.894013	-0.250666	0.145969	0.146427	-0.0674696	0.216178	-0.108626	-0.135997	-0.0546668	-0.574031	-0.337974	-0.433778	0.580864	0.143902	0.172507	-0.0547401	-0.581685	0.250165	-0.0972407	0.0843661	-0.162358	-0.0068074	0.344739	1.03621	0.208257	-0.175886	0.366485	0.420684	1.16832
0.12	0.288544	-0.168989	0.0549392	-0.0298328	0.895535	-0.24824	0.13904	0.160222	-0.0663504	0.246415	-0.103842	-0.149251	-0.0546604	-0.568356	-0.346263	-0.409814	0.616828	0.0766112	0.0949563	-0.0547337	-0.586733	0.259467	-0.0838244	0.0878132	-0.16543	0.000489458	0.331547	1.03473	0.201511	-0.1692	0.357699	0.414285	1.1669
0.13	0.293745	-0.176507	0.0520968	-0.0163075	0.897232	-0.245929	0.131447	0.171384	-0.0672963	0.273077	-0.0917535	-0.153909	-0.054654	-0.556756	-0.351758	-0.382825	0.655132	0.0091257	0.0128768	-0.0547274	-0.59117	0.266731	-0.0712691	0.0929242	-0.168284	0.00820046	0.318566	1.03388	0.195978	-0.162946	0.349796	0.407357	1.16635
0.14	0.297025	-0.182243	0.0501419	-0.0032219	0.898998	-0.243781	0.123353	0.17989	-0.0704951	0.294899	-0.0742709	-0.150948	-0.0546477	-0.537904	-0.355497	-0.353493	0.69677	-0.0548676	-0.0691783	-0.054721	-0.594258	0.272293	-0.0603265	0.0994674	-0.170861	0.0158524	0.306368	1.03341	0.191694	-0.157313	0.343289	0.400127	1.16683
0.15	0.298079	-0.186275	0.0496884	0.00942372	0.900737	-0.241824	0.114882	0.185927	-0.0757947	0.311044	-0.0536289	-0.142168	-0.0546413	-0.511076	-0.358393	-0.322579	0.742259	-0.11155	-0.146191	-0.0547147	-0.595465	0.276494	-0.0515357	0.107141	-0.173139	0.0229953	0.295562	1.03304	0.188649	-0.152491	0.338712	0.392869	1.1683
0.16	0.296952	-0.188698	0.0511077	0.0216457	0.902389	-0.24005	0.105995	0.189784	-0.0827612	0.321211	-0.0319762	-0.129716	-0.054635	-0.476394	-0.360925	-0.290728	0.791373	-0.157624	-0.213547	-0.0547083	-0.594625	0.279568	-0.0451512	0.115612	-0.175141	0.0292747	0.286726	1.0325	0.186802	-0.148645	0.336542	0.38587	1.1706
0.17	0.294	-0.189587	0.0544806	0.0334676	0.90398	-0.238455	0.0965169	0.19176	-0.0908132	0.325641	-0.0110315	-0.115602	-0.0546286	-0.434787	-0.363046	-0.258437	0.843173	-0.190868	-0.267739	-0.0547019	-0.591947	0.281583	-0.0411321	0.124563	-0.176929	0.034496	0.280351	1.0316	0.186097	-0.145896	0.337103	0.379403	1.17344
0.18	0.28976	-0.189001	0.059602	0.0449206	0.905541	-0.237025	0.0862476	0.19211	-0.0993387	0.325046	0.00808296	-0.10138	-0.0546223	-0.387758	-0.364306	-0.226136	0.896225	-0.210435	-0.306696	-0.0546956	-0.587903	0.28246	-0.0391691	0.133728	-0.178605	0.0386488	0.276801	1.03027	0.186463	-0.144295	0.340498	0.37371	1.1765
0.19	0.284787	-0.187009	0.0660303	0.0560376	0.907096	-0.235733	0.0750645	0.19105	-0.107776	0.320453	0.0248488	-0.0880323	-0.0546159	-0.337078	-0.364067	-0.194302	0.948869	-0.216858	-0.329815	-0.0546892	-0.583087	0.282033	-0.0387428	0.142907	-0.180305	0.041901	0.276288	1.02857	0.187818	-0.143814	0.34656	0.368981	1.17947
0.2	0.27954	-0.183716	0.0731672	0.0668527	0.908663	-0.234539	0.0629782	0.188774	-0.115658	0.313034	0.0392476	-0.0759928	-0.0546096	-0.284519	-0.361731	-0.163525	0.999469	-0.211821	-0.337782	-0.0546829	-0.57808	0.280127	-0.0392006	0.151972	-0.182185	0.0445679	0.278869	1.02668	0.190054	-0.144347	0.354846	0.365353	1.18216
0.21	0.27435	-0.179285	0.0803476	0.0773984	0.910259	-0.233398	0.0501355	0.185484	-0.122629	0.303934	0.0516011	-0.0652713	-0.0546032	-0.231657	-0.35692	-0.134499	1.04659	-0.197744	-0.33226	-0.0546765	-0.573348	0.276634	-0.0398474	0.160853	-0.184412	0.0470642	0.284457	1.02484	0.193028	-0.145716	0.364669	0.362922	1.1845
0.22	0.269402	-0.173951	0.0869426	0.0877118	0.911885	-0.232271	0.0367685	0.181415	-0.128451	0.29413	0.0624034	-0.0556113	-0.0545969	-0.179758	-0.349577	-0.107959	1.08911	-0.177309	-0.315508	-0.0546702	-0.569203	0.271552	-0.0400331	0.169523	-0.187138	0.0498429	0.292848	1.02337	0.19656	-0.147705	0.375168	0.361744	1.18653
0.23	0.264761	-0.168012	0.0924455	0.0978333	0.913529	-0.231128	0.023125	0.176841	-0.132996	0.284351	0.0721787	-0.046641	-0.0545905	-0.129747	-0.339981	-0.0845813	1.12625	-0.153014	-0.29002	-0.0546638	-0.565802	0.265008	-0.0392241	0.177973	-0.190488	0.0533276	0.303756	1.02258	0.200436	-0.150083	0.385404	0.361855	1.18845
0.24	0.260423	-0.161802	0.096527	0.107804	0.915169	-0.22995	0.00940624	0.172071	-0.136242	0.275047	0.0813843	-0.0379869	-0.0545841	-0.0822264	-0.328697	-0.0648908	1.15757	-0.126867	-0.258226	-0.0546575	-0.563174	0.257245	-0.0370492	0.186207	-0.194546	0.0578488	0.316841	1.0228	0.204419	-0.152637	0.394469	0.363279	1.19047
0.25	0.256358	-0.15566	0.0990552	0.117663	0.916776	-0.228725	-0.00427149	0.167423	-0.138271	0.266421	0.0903622	-0.0293371	-0.0545778	-0.0375285	-0.316479	-0.0491936	1.18292	-0.100245	-0.222306	-0.0546511	-0.561261	0.248591	-0.0333189	0.194227	-0.199344	0.0635987	0.331737	1.02426	0.208274	-0.155193	0.401595	0.366029	1.19285
0.26	0.25255	-0.149885	0.10008	0.127446	0.918323	-0.227453	-0.0178845	0.163191	-0.139256	0.258486	0.0993338	-0.0204582	-0.0545714	0.00422023	-0.304148	-0.0375588	1.20236	-0.0739455	-0.184125	-0.0546448	-0.559959	0.23941	-0.0280178	0.202048	-0.204863	0.0706185	0.348062	1.02716	0.211788	-0.15763	0.40623	0.370104	1.19578
0.27	0.249018	-0.144708	0.0997936	0.137184	0.91978	-0.226141	-0.0314842	0.159608	-0.139454	0.251148	0.108421	-0.0111832	-0.0545651	0.0430336	-0.292476	-0.0298414	1.21614	-0.048348	-0.145278	-0.0546384	-0.559151	0.230046	-0.0212788	0.209699	-0.211039	0.0788246	0.365412	1.03159	0.214799	-0.159886	0.408087	0.375482	1.19935
0.28	0.24582	-0.140277	0.0984799	0.146898	0.921128	-0.224798	-0.0451665	0.156816	-0.13918	0.244282	0.117678	-0.00138851	-0.0545587	0.0790066	-0.282088	-0.0257372	1.22459	-0.0236366	-0.107177	-0.0546321	-0.558737	0.220781	-0.0133457	0.217246	-0.217772	0.0880696	0.383362	1.03754	0.21721	-0.161947	0.407154	0.382111	1.20353
0.29	0.243028	-0.136653	0.0964651	0.156603	0.922352	-0.223435	-0.0590402	0.154858	-0.138772	0.23779	0.127122	0.00902118	-0.0545524	0.112268	-0.27341	-0.0248499	1.2281	6.8679e-06	-0.0711569	-0.0546257	-0.558646	0.211806	-0.00453225	0.224794	-0.224939	0.0982216	0.401446	1.04491	0.21899	-0.163836	0.403658	0.389896	1.20815
0.3	0.240713	-0.133804	0.0940694	0.166308	0.923445	-0.222063	-0.0731961	0.153682	-0.138556	0.231631	0.136754	0.0201143	-0.0545461	0.142952	-0.266643	-0.0267538	1.22705	0.0222872	-0.0385177	-0.0546194	-0.558839	0.203213	0.00481649	0.232491	-0.232405	0.109237	0.419165	1.0535	0.22017	-0.165601	0.398008	0.398699	1.21296
0.31	0.238935	-0.131632	0.0915722	0.176024	0.924397	-0.220692	-0.0876831	0.153163	-0.138805	0.225825	0.146569	0.0319219	-0.0545397	0.171183	-0.261785	-0.0310403	1.22181	0.0427777	-0.0105066	-0.0546131	-0.559293	0.195007	0.0143568	0.240519	-0.240034	0.121204	0.435997	1.06309	0.220829	-0.167295	0.390718	0.40834	1.21763
0.32	0.23772	-0.129993	0.0891935	0.185752	0.925201	-0.219332	-0.102494	0.153131	-0.139712	0.220444	0.156561	0.044423	-0.0545334	0.197081	-0.258665	-0.0373426	1.21274	0.0609879	0.0117764	-0.0546067	-0.559983	0.187128	0.0237717	0.24907	-0.247696	0.134337	0.451428	1.0734	0.221072	-0.168967	0.382326	0.418606	1.22179
0.33	0.237052	-0.128726	0.087087	0.195488	0.925862	-0.217997	-0.117558	0.153402	-0.141377	0.215595	0.166729	0.057538	-0.054527	0.220761	-0.256991	-0.0453386	1.20012	0.0764787	0.0275187	-0.0546004	-0.56087	0.179475	0.0327888	0.258328	-0.255266	0.148935	0.464989	1.08415	0.221013	-0.170653	0.373326	0.429267	1.22514
